# xmcd CD database file
# Copyright (C) 1995-1998 Ti Kan
#
# Track frame offsets:
#	150
#	19616
#	42110
#	51709
#	70864
#	82717
#	102999
#	123654
#	142836
#	166934
#	182091
#	199008
#	224176
#	251242
#
# Disc length: 3586 seconds
#
# Revision: 0
# Processed by: cddbd v1.4PL0 Copyright (c) Steve Scherf et al.
# Submitted via: CDex 1.30Release
#
DISCID=cb0e000e
DTITLE=Barbecue Bob and the Spareribs - The Sacred and the Propane
DYEAR=2001
DGENRE=Blues
TTITLE0=Burnin' Hell
TTITLE1=Love Has Turned To Hate
TTITLE2=Hey Little Girl
TTITLE3=Fat Of The Land
TTITLE4=Don't Start Crying Now
TTITLE5=Kate
TTITLE6=Evil Twist
TTITLE7=The Preacher
TTITLE8=It's Too Late Brother
TTITLE9=We Gotta Rock
TTITLE10=The Chosen One
TTITLE11=Remember
TTITLE12=Time To Go
TTITLE13=French St. Mambo
EXTD=\n\n YEAR: 2001 ID3G:   0
EXTT0=
EXTT1=
EXTT2=
EXTT3=
EXTT4=
EXTT5=
EXTT6=
EXTT7=
EXTT8=
EXTT9=
EXTT10=
EXTT11=
EXTT12=
EXTT13=
PLAYORDER=
